<?xml version="1.0" encoding="utf-8"?>
<!-- Generator: Adobe Illustrator 16.0.0, SVG Export Plug-In . SVG Version: 6.00 Build 0)  -->
<!DOCTYPE svg PUBLIC "-//W3C//DTD SVG 1.1//EN" "http://www.w3.org/Graphics/SVG/1.1/DTD/svg11.dtd">
<svg version="1.1" xmlns="http://www.w3.org/2000/svg" xmlns:xlink="http://www.w3.org/1999/xlink" x="0px" y="0px" width="605px"
	 height="168px" viewBox="0 0 605 168" enable-background="new 0 0 605 168" xml:space="preserve">
<g id="Layer_1">
	<g>
		<path stroke="#000000" stroke-width="6" stroke-miterlimit="10" d="M50.193,25.829c8.139,0,15.251,1.363,21.337,4.089
			c6.084,2.727,11.123,6.303,15.114,10.728c3.99,4.426,6.974,9.444,8.95,15.054c1.975,5.612,2.963,11.261,2.963,16.951
			c0,5.77-0.989,11.439-2.963,17.01c-1.976,5.571-4.96,10.55-8.95,14.936c-3.991,4.386-9.029,7.942-15.114,10.668
			c-6.086,2.726-13.198,4.089-21.337,4.089H36.68c-1.345,0-2.49-0.474-3.438-1.422s-1.422-2.093-1.422-3.438V30.689
			c0-1.343,0.474-2.489,1.422-3.438s2.093-1.422,3.438-1.422H50.193z M44.029,35.549c-0.711,0-1.304,0.257-1.778,0.771
			c-0.474,0.515-0.711,1.087-0.711,1.719v69.227c0,0.633,0.237,1.186,0.711,1.66s1.026,0.711,1.659,0.711h6.283
			c6.638,0,12.387-1.046,17.248-3.141c4.86-2.093,8.87-4.878,12.032-8.357c3.16-3.477,5.512-7.427,7.053-11.854
			c1.541-4.425,2.312-8.968,2.312-13.632c0-4.583-0.771-9.107-2.312-13.573c-1.541-4.464-3.893-8.435-7.053-11.913
			c-3.162-3.477-7.172-6.283-12.032-8.417c-4.86-2.134-10.609-3.2-17.248-3.2H44.029z"/>
		<path stroke="#000000" stroke-width="6" stroke-miterlimit="10" d="M146.089,122.912c-4.03,0-8.021-0.692-11.972-2.074
			c-3.953-1.382-7.468-3.497-10.55-6.342c-3.082-2.845-5.592-6.401-7.527-10.668c-1.938-4.268-2.904-9.285-2.904-15.055
			c0-5.768,0.948-10.787,2.845-15.054c1.897-4.268,4.405-7.803,7.527-10.609c3.121-2.804,6.657-4.899,10.609-6.283
			c3.951-1.381,7.942-2.074,11.972-2.074c4.108,0,8.139,0.693,12.091,2.074c3.951,1.384,7.468,3.479,10.55,6.283
			c3.082,2.806,5.571,6.342,7.468,10.609c1.897,4.267,2.845,9.287,2.845,15.054c0,5.77-0.948,10.787-2.845,15.055
			c-1.896,4.267-4.406,7.823-7.527,10.668c-3.123,2.845-6.659,4.96-10.609,6.342C154.109,122.22,150.12,122.912,146.089,122.912z
			 M146.089,113.192c2.923,0,5.788-0.474,8.594-1.422c2.804-0.948,5.293-2.43,7.468-4.445c2.173-2.015,3.912-4.563,5.216-7.646
			c1.304-3.082,1.956-6.716,1.956-10.906c0-4.188-0.652-7.823-1.956-10.905c-1.304-3.082-3.043-5.61-5.216-7.586
			c-2.174-1.975-4.664-3.438-7.468-4.386c-2.806-0.948-5.671-1.422-8.594-1.422c-2.924,0-5.79,0.474-8.594,1.422
			c-2.806,0.948-5.295,2.412-7.468,4.386c-2.174,1.976-3.912,4.504-5.215,7.586c-1.304,3.082-1.956,6.718-1.956,10.905
			c0,4.19,0.67,7.824,2.015,10.906c1.343,3.082,3.101,5.63,5.275,7.646c2.173,2.015,4.642,3.497,7.409,4.445
			C140.32,112.718,143.165,113.192,146.089,113.192z"/>
		<path stroke="#000000" stroke-width="6" stroke-miterlimit="10" d="M258.939,115.682c0,1.344-0.482,2.489-1.441,3.438
			c-0.959,0.948-2.119,1.422-3.479,1.422c-1.361,0-2.502-0.474-3.421-1.422c-0.921-0.948-1.38-2.093-1.38-3.438V88.773
			c0-4.188-0.672-7.823-2.015-10.905c-1.345-3.082-3.103-5.631-5.275-7.646c-2.175-2.015-4.664-3.497-7.468-4.445
			c-2.806-0.948-5.671-1.422-8.594-1.422c-2.925,0-5.77,0.474-8.535,1.422c-2.767,0.948-5.236,2.43-7.409,4.445
			c-2.174,2.015-3.932,4.564-5.275,7.646c-1.345,3.082-2.015,6.718-2.015,10.905v26.909c0,1.344-0.474,2.489-1.422,3.438
			s-2.095,1.422-3.438,1.422c-1.345,0-2.49-0.474-3.438-1.422s-1.422-2.093-1.422-3.438V88.773c0-5.768,0.969-10.787,2.91-15.054
			c1.939-4.268,4.453-7.824,7.541-10.668c3.087-2.845,6.61-4.958,10.568-6.342c3.958-1.382,7.957-2.075,11.995-2.075
			s8.035,0.693,11.993,2.075c3.958,1.383,7.501,3.497,10.628,6.342c3.126,2.845,5.642,6.401,7.542,10.668
			c1.9,4.267,2.851,9.287,2.851,15.054V115.682z"/>
		<path stroke="#000000" stroke-width="6" stroke-miterlimit="10" d="M308.369,122.794c-4.03,0-8.022-0.693-11.973-2.075
			c-3.953-1.382-7.468-3.497-10.55-6.342c-3.082-2.845-5.592-6.401-7.527-10.668c-1.938-4.268-2.904-9.285-2.904-15.054
			c0-5.768,0.949-10.787,2.845-15.055s4.404-7.803,7.527-10.609c3.121-2.804,6.656-4.899,10.609-6.282
			c3.951-1.382,7.942-2.075,11.973-2.075c4.108,0,8.138,0.693,12.091,2.075c3.951,1.383,7.468,3.478,10.55,6.282
			c3.082,2.806,5.571,6.342,7.468,10.609c1.896,4.268,2.845,9.287,2.845,15.055v29.872c0,5.768-0.948,10.787-2.845,15.054
			c-1.897,4.268-4.406,7.824-7.527,10.669c-3.123,2.845-6.659,4.958-10.609,6.342c-3.952,1.381-7.942,2.074-11.972,2.074
			c-1.345,0-2.489-0.474-3.438-1.422c-0.949-0.948-1.423-2.095-1.423-3.438c0-1.345,0.474-2.49,1.423-3.438
			c0.948-0.948,2.093-1.422,3.438-1.422c2.923,0,5.788-0.474,8.594-1.422c2.804-0.948,5.294-2.43,7.468-4.445
			c2.172-2.015,3.912-4.563,5.216-7.646c1.304-3.082,1.956-6.718,1.956-10.906v-4.742c-3.162,3.004-6.757,5.256-10.787,6.757
			S312.636,122.794,308.369,122.794z M308.369,113.074c2.923,0,5.788-0.474,8.594-1.423c2.804-0.948,5.294-2.43,7.468-4.445
			c2.172-2.015,3.912-4.543,5.216-7.586c1.304-3.042,1.956-6.698,1.956-10.965c0-4.188-0.652-7.824-1.956-10.906
			c-1.304-3.082-3.043-5.61-5.216-7.586c-2.174-1.975-4.664-3.438-7.468-4.386c-2.806-0.948-5.671-1.422-8.594-1.422
			c-2.925,0-5.79,0.474-8.594,1.422c-2.806,0.948-5.295,2.412-7.468,4.386c-2.175,1.976-3.912,4.504-5.216,7.586
			s-1.956,6.718-1.956,10.906c0,4.267,0.67,7.923,2.015,10.965c1.343,3.043,3.101,5.571,5.275,7.586
			c2.172,2.015,4.641,3.497,7.408,4.445C302.6,112.6,305.444,113.074,308.369,113.074z"/>
		<path stroke="#000000" stroke-width="6" stroke-miterlimit="10" d="M370.839,115.682c0,1.344-0.474,2.489-1.422,3.438
			s-2.095,1.422-3.438,1.422c-1.345,0-2.49-0.474-3.438-1.422s-1.422-2.093-1.422-3.438v-56.78c0-5.768,0.967-10.787,2.904-15.055
			c1.936-4.267,4.445-7.823,7.527-10.668c3.082-2.845,6.597-4.958,10.55-6.342c3.951-1.382,7.942-2.074,11.973-2.074
			c4.03,0,8.02,0.692,11.972,2.074c3.951,1.384,7.486,3.479,10.609,6.283c3.121,2.806,5.63,6.342,7.527,10.609
			c1.896,4.267,2.845,9.287,2.845,15.054v56.899c0,1.344-0.474,2.489-1.422,3.438s-2.095,1.422-3.438,1.422
			c-1.344,0-2.489-0.474-3.438-1.422s-1.422-2.093-1.422-3.438V59.02c0-4.268-0.652-7.942-1.956-11.024
			c-1.304-3.082-3.043-5.63-5.215-7.646c-2.175-2.015-4.664-3.497-7.468-4.445c-2.806-0.948-5.671-1.422-8.594-1.422
			c-3.004,0-5.888,0.474-8.654,1.422c-2.767,0.948-5.236,2.412-7.408,4.386c-2.175,1.977-3.912,4.504-5.216,7.586
			c-1.304,3.082-1.956,6.718-1.956,10.906V115.682z"/>
		<path stroke="#000000" stroke-width="6" stroke-miterlimit="10" d="M499.453,61.746c0-1.343,0.473-2.489,1.422-3.438
			s2.094-1.422,3.438-1.422s2.49,0.474,3.438,1.422c0.949,0.948,1.422,2.095,1.422,3.438v31.65c0,1.66,0.18,3.36,0.535,5.097
			c0.355,1.739,0.889,3.438,1.6,5.097s1.6,3.182,2.666,4.564c1.068,1.383,2.271,2.51,3.617,3.378
			c0.631,0.396,1.145,0.909,1.541,1.541c0.711,1.107,0.928,2.312,0.65,3.615s-0.908,2.293-1.896,2.963
			c-0.988,0.672-1.955,0.987-2.904,0.948c-0.947-0.041-1.818-0.335-2.607-0.889c-1.738-1.186-3.182-2.41-4.326-3.675
			c-1.146-1.263-2.154-2.727-3.023-4.386c-0.396-0.789-0.889-1.245-1.48-1.363c-0.594-0.119-1.127,0.139-1.602,0.771
			c-3.24,4.03-7.152,6.994-11.734,8.89c-4.584,1.896-9.246,2.845-13.988,2.845c-4.029,0-8.021-0.693-11.973-2.075
			c-3.952-1.382-7.467-3.497-10.549-6.342c-3.082-2.845-5.592-6.401-7.527-10.668c-1.938-4.268-2.904-9.285-2.904-15.054
			c0-5.768,0.948-10.787,2.845-15.055s4.404-7.803,7.527-10.609c3.121-2.804,6.657-4.899,10.609-6.282
			c3.951-1.382,7.943-2.075,11.973-2.075c4.268,0,8.416,0.752,12.447,2.252c4.029,1.502,7.625,3.754,10.787,6.757V61.746z
			 M454.882,77.749c-1.266,3.082-1.896,6.718-1.896,10.906c0,4.267,0.651,7.923,1.955,10.965c1.305,3.043,3.042,5.571,5.216,7.586
			c2.173,2.015,4.662,3.497,7.468,4.445c2.805,0.949,5.67,1.423,8.594,1.423s5.789-0.474,8.594-1.423
			c2.805-0.948,5.275-2.41,7.41-4.386c2.211-2.054,3.971-4.603,5.273-7.646c1.305-3.042,1.957-6.698,1.957-10.965
			c0-4.188-0.674-7.824-2.016-10.906c-1.266-3.082-2.984-5.61-5.156-7.586c-2.174-1.975-4.664-3.438-7.469-4.386
			s-5.67-1.422-8.594-1.422c-3.004,0-5.889,0.474-8.652,1.422c-2.768,0.948-5.236,2.412-7.41,4.386
			C457.983,72.139,456.225,74.667,454.882,77.749z"/>
		<path stroke="#000000" stroke-width="6" stroke-miterlimit="10" d="M545.088,88.773c0,4.19,0.652,7.824,1.957,10.906
			s3.041,5.63,5.215,7.646s4.662,3.497,7.469,4.445c2.805,0.948,5.67,1.422,8.594,1.422c1.344,0,2.49,0.474,3.438,1.423
			c0.949,0.948,1.422,2.095,1.422,3.438c0,1.345-0.473,2.489-1.422,3.438c-0.947,0.948-2.094,1.422-3.438,1.422
			c-4.029,0-8.021-0.692-11.973-2.074s-7.467-3.497-10.549-6.342c-3.082-2.845-5.592-6.401-7.527-10.668
			c-1.938-4.268-2.904-9.285-2.904-15.055V69.451c0-1.186-0.416-2.172-1.246-2.963c-0.828-0.789-1.797-1.186-2.902-1.186h-4.031
			c-1.107,0-2.074-0.415-2.904-1.245c-0.83-0.83-1.244-1.796-1.244-2.904c0-1.185,0.414-2.172,1.244-2.963
			c0.83-0.789,1.797-1.185,2.904-1.185h4.031c1.105,0,2.074-0.415,2.902-1.245c0.83-0.83,1.246-1.796,1.246-2.904V29.622
			c0-1.343,0.475-2.489,1.422-3.438c0.949-0.948,2.094-1.422,3.438-1.422s2.49,0.474,3.438,1.422
			c0.949,0.948,1.422,2.095,1.422,3.438v23.234c0,1.107,0.416,2.074,1.246,2.904c0.83,0.83,1.797,1.245,2.904,1.245h14.58
			c1.105,0,2.074,0.396,2.904,1.185c0.83,0.791,1.244,1.778,1.244,2.963c0,1.108-0.414,2.075-1.244,2.904
			c-0.83,0.83-1.799,1.245-2.904,1.245h-14.58c-1.107,0-2.074,0.396-2.904,1.186c-0.83,0.791-1.246,1.778-1.246,2.963V88.773z"/>
	</g>
</g>
<g id="Layer_2">
</g>
</svg>
