<?xml version="1.0" encoding="utf-8"?>
<!-- Generator: Adobe Illustrator 16.0.0, SVG Export Plug-In . SVG Version: 6.00 Build 0)  -->
<!DOCTYPE svg PUBLIC "-//W3C//DTD SVG 1.1//EN" "http://www.w3.org/Graphics/SVG/1.1/DTD/svg11.dtd">
<svg version="1.1" id="Layer_1" xmlns="http://www.w3.org/2000/svg" xmlns:xlink="http://www.w3.org/1999/xlink" x="0px" y="0px"
	 width="401.533px" height="111.5px" viewBox="0 0 401.533 111.5" enable-background="new 0 0 401.533 111.5" xml:space="preserve">
<g id="Layer_1_1_">
	<g>
		<path stroke="#000000" stroke-width="6" stroke-miterlimit="10" d="M21.114,12.415c5.828,0,10.919,0.976,15.276,2.928
			c4.356,1.952,7.963,4.513,10.821,7.681c2.857,3.168,4.993,6.761,6.407,10.778c1.415,4.017,2.122,8.062,2.122,12.135
			c0,4.132-0.708,8.189-2.122,12.178c-1.414,3.989-3.55,7.553-6.407,10.694c-2.857,3.14-6.464,5.686-10.821,7.637
			c-4.357,1.952-9.448,2.928-15.276,2.928H11.44c-0.963,0-1.783-0.339-2.461-1.019C8.3,77.677,7.96,76.856,7.96,75.894V15.895
			c0-0.961,0.339-1.782,1.019-2.462c0.678-0.679,1.498-1.018,2.461-1.018H21.114z M16.701,19.374c-0.508,0-0.933,0.184-1.272,0.553
			c-0.34,0.368-0.509,0.778-0.509,1.23v49.562c0,0.453,0.169,0.85,0.509,1.188c0.339,0.34,0.734,0.509,1.188,0.509h4.498
			c4.752,0,8.869-0.749,12.349-2.249c3.479-1.498,6.35-3.492,8.614-5.983c2.262-2.489,3.946-5.317,5.05-8.487
			c1.103-3.167,1.655-6.421,1.655-9.759c0-3.28-0.552-6.521-1.655-9.718c-1.104-3.195-2.788-6.039-5.05-8.529
			c-2.264-2.49-5.135-4.499-8.614-6.026c-3.479-1.528-7.595-2.291-12.349-2.291L16.701,19.374L16.701,19.374z"/>
		<path stroke="#000000" stroke-width="6" stroke-miterlimit="10" d="M89.77,81.921c-2.885,0-5.743-0.496-8.571-1.485
			c-2.83-0.989-5.346-2.504-7.553-4.54c-2.207-2.038-4.004-4.583-5.389-7.639c-1.388-3.054-2.079-6.647-2.079-10.777
			s0.679-7.723,2.037-10.778c1.357-3.056,3.153-5.586,5.388-7.595c2.234-2.007,4.766-3.507,7.595-4.498
			c2.829-0.989,5.686-1.485,8.571-1.485c2.941,0,5.828,0.496,8.657,1.485c2.829,0.99,5.347,2.49,7.553,4.498
			c2.207,2.009,3.988,4.541,5.347,7.595c1.358,3.055,2.036,6.649,2.036,10.778c0,4.13-0.678,7.723-2.036,10.777
			c-1.358,3.056-3.154,5.601-5.39,7.639c-2.235,2.036-4.767,3.551-7.595,4.54C95.512,81.425,92.656,81.921,89.77,81.921z
			 M89.77,74.961c2.093,0,4.144-0.339,6.153-1.018c2.007-0.679,3.79-1.739,5.346-3.182c1.556-1.443,2.801-3.268,3.734-5.475
			c0.933-2.206,1.4-4.809,1.4-7.808s-0.467-5.601-1.4-7.808c-0.934-2.207-2.178-4.017-3.734-5.431
			c-1.556-1.414-3.339-2.461-5.346-3.14c-2.01-0.679-4.061-1.018-6.153-1.018s-4.145,0.339-6.152,1.018
			c-2.01,0.678-3.792,1.726-5.347,3.14c-1.557,1.415-2.8,3.225-3.733,5.431c-0.934,2.207-1.4,4.81-1.4,7.808
			c0,2.999,0.479,5.602,1.442,7.808c0.961,2.206,2.22,4.03,3.777,5.475c1.555,1.442,3.323,2.503,5.304,3.182
			C85.64,74.622,87.677,74.961,89.77,74.961z"/>
		<path stroke="#000000" stroke-width="6" stroke-miterlimit="10" d="M170.563,76.744c0,0.962-0.345,1.782-1.031,2.461
			c-0.687,0.679-1.518,1.018-2.491,1.018c-0.975,0-1.791-0.339-2.449-1.018c-0.66-0.679-0.989-1.498-0.989-2.461V57.479
			c0-2.999-0.481-5.601-1.442-7.808c-0.963-2.207-2.222-4.031-3.777-5.475c-1.557-1.441-3.339-2.503-5.347-3.182
			c-2.008-0.679-4.06-1.019-6.152-1.019c-2.095,0-4.131,0.34-6.111,1.019c-1.98,0.679-3.749,1.74-5.305,3.182
			c-1.556,1.443-2.814,3.268-3.776,5.475c-0.962,2.207-1.442,4.81-1.442,7.808v19.265c0,0.962-0.339,1.782-1.018,2.461
			c-0.679,0.679-1.5,1.018-2.461,1.018c-0.963,0-1.783-0.339-2.461-1.018c-0.678-0.679-1.018-1.498-1.018-2.461V57.479
			c0-4.13,0.693-7.723,2.083-10.778c1.388-3.056,3.188-5.601,5.399-7.638c2.209-2.037,4.732-3.549,7.565-4.54
			c2.833-0.989,5.696-1.486,8.587-1.486s5.753,0.497,8.586,1.486c2.834,0.989,5.37,2.503,7.609,4.54
			c2.237,2.038,4.039,4.583,5.4,7.638c1.36,3.055,2.041,6.649,2.041,10.778L170.563,76.744L170.563,76.744z"/>
		<path stroke="#000000" stroke-width="6" stroke-miterlimit="10" d="M205.952,81.836c-2.885,0-5.744-0.495-8.572-1.485
			c-2.83-0.989-5.347-2.504-7.553-4.541c-2.206-2.036-4.003-4.582-5.389-7.638c-1.387-3.055-2.079-6.647-2.079-10.776
			c0-4.13,0.68-7.724,2.037-10.779c1.357-3.056,3.154-5.587,5.389-7.596c2.234-2.007,4.765-3.508,7.595-4.497
			c2.828-0.989,5.686-1.486,8.572-1.486c2.94,0,5.827,0.497,8.657,1.486c2.828,0.989,5.347,2.49,7.553,4.497
			c2.206,2.009,3.988,4.541,5.347,7.596c1.357,3.056,2.037,6.649,2.037,10.779v21.386c0,4.129-0.679,7.723-2.037,10.777
			c-1.359,3.057-3.154,5.602-5.389,7.639c-2.236,2.037-4.768,3.549-7.596,4.54c-2.83,0.989-5.686,1.485-8.57,1.485
			c-0.963,0-1.783-0.34-2.462-1.019c-0.679-0.679-1.019-1.5-1.019-2.461c0-0.964,0.34-1.782,1.019-2.461
			c0.679-0.68,1.499-1.019,2.462-1.019c2.092,0,4.143-0.34,6.152-1.018c2.007-0.68,3.789-1.741,5.346-3.184
			c1.555-1.441,2.801-3.267,3.734-5.473c0.934-2.207,1.4-4.811,1.4-7.809v-3.395c-2.263,2.15-4.838,3.762-7.722,4.837
			C211.978,81.299,209.007,81.836,205.952,81.836z M205.952,74.877c2.093,0,4.144-0.34,6.153-1.02
			c2.008-0.678,3.79-1.74,5.346-3.182c1.556-1.443,2.801-3.252,3.734-5.431c0.935-2.178,1.401-4.795,1.401-7.85
			c0-2.999-0.466-5.602-1.401-7.809c-0.934-2.206-2.178-4.016-3.734-5.43c-1.556-1.415-3.338-2.462-5.346-3.141
			c-2.009-0.679-4.06-1.019-6.153-1.019c-2.094,0-4.145,0.34-6.152,1.019c-2.01,0.679-3.792,1.727-5.347,3.141
			c-1.558,1.414-2.802,3.224-3.735,5.43c-0.933,2.207-1.4,4.81-1.4,7.809c0,3.054,0.48,5.671,1.443,7.85
			c0.962,2.179,2.22,3.988,3.777,5.431c1.555,1.442,3.322,2.503,5.304,3.182C201.821,74.537,203.858,74.877,205.952,74.877z"/>
		<path stroke="#000000" stroke-width="6" stroke-miterlimit="10" d="M250.677,76.744c0,0.962-0.34,1.782-1.019,2.461
			c-0.679,0.679-1.5,1.018-2.461,1.018c-0.962,0-1.783-0.339-2.46-1.018c-0.68-0.679-1.019-1.498-1.019-2.461v-40.65
			c0-4.13,0.692-7.723,2.079-10.779c1.386-3.054,3.182-5.601,5.389-7.638c2.206-2.036,4.723-3.549,7.553-4.54
			c2.829-0.989,5.686-1.486,8.572-1.486c2.886,0,5.741,0.497,8.571,1.486c2.829,0.991,5.36,2.491,7.596,4.499
			c2.235,2.008,4.031,4.54,5.389,7.595s2.038,6.649,2.038,10.778v40.736c0,0.962-0.34,1.782-1.019,2.461
			c-0.678,0.679-1.5,1.018-2.46,1.018c-0.963,0-1.783-0.339-2.462-1.018s-1.019-1.498-1.019-2.461V36.178
			c0-3.056-0.466-5.687-1.4-7.893c-0.934-2.207-2.178-4.031-3.734-5.474c-1.556-1.443-3.338-2.504-5.346-3.183
			c-2.008-0.679-4.06-1.018-6.153-1.018c-2.15,0-4.215,0.339-6.196,1.018c-1.98,0.679-3.748,1.728-5.304,3.141
			c-1.557,1.415-2.8,3.225-3.734,5.431c-0.933,2.206-1.399,4.81-1.399,7.808V76.744L250.677,76.744z"/>
		<path stroke="#000000" stroke-width="6" stroke-miterlimit="10" d="M342.756,38.129c0-0.961,0.338-1.782,1.018-2.461
			c0.68-0.68,1.499-1.018,2.462-1.018s1.782,0.34,2.461,1.018c0.68,0.679,1.019,1.5,1.019,2.461v22.66
			c0,1.188,0.129,2.405,0.384,3.649c0.253,1.245,0.634,2.461,1.144,3.648c0.511,1.188,1.146,2.278,1.91,3.268
			c0.764,0.99,1.625,1.797,2.588,2.419c0.453,0.282,0.82,0.65,1.104,1.103c0.509,0.793,0.665,1.655,0.466,2.588
			c-0.2,0.934-0.65,1.642-1.358,2.121c-0.706,0.482-1.399,0.707-2.078,0.679c-0.678-0.028-1.303-0.239-1.867-0.636
			c-1.245-0.849-2.276-1.725-3.097-2.631c-0.82-0.904-1.543-1.952-2.164-3.14c-0.285-0.565-0.638-0.891-1.061-0.976
			c-0.424-0.085-0.807,0.1-1.146,0.552c-2.321,2.885-5.121,5.007-8.402,6.365c-3.282,1.357-6.618,2.037-10.015,2.037
			c-2.883,0-5.741-0.497-8.572-1.486c-2.828-0.989-5.345-2.504-7.552-4.54c-2.206-2.037-4.003-4.583-5.389-7.638
			c-1.387-3.055-2.079-6.647-2.079-10.777s0.679-7.723,2.037-10.779c1.358-3.055,3.153-5.586,5.389-7.595
			c2.234-2.007,4.766-3.508,7.596-4.498c2.829-0.989,5.688-1.485,8.571-1.485c3.057,0,6.025,0.539,8.911,1.612
			c2.885,1.076,5.459,2.688,7.724,4.837v-1.356H342.756z M310.845,49.586c-0.905,2.207-1.356,4.81-1.356,7.809
			c0,3.054,0.466,5.671,1.399,7.85c0.935,2.179,2.178,3.988,3.734,5.431c1.557,1.442,3.339,2.503,5.347,3.182
			c2.008,0.679,4.06,1.02,6.153,1.02c2.093,0,4.145-0.34,6.152-1.02c2.008-0.678,3.776-1.725,5.305-3.141
			c1.583-1.469,2.844-3.294,3.776-5.473c0.933-2.178,1.4-4.795,1.4-7.851c0-2.998-0.483-5.601-1.443-7.808
			c-0.906-2.207-2.137-4.016-3.691-5.432c-1.556-1.413-3.34-2.461-5.347-3.14c-2.01-0.678-4.061-1.018-6.154-1.018
			c-2.15,0-4.215,0.339-6.193,1.018c-1.981,0.679-3.748,1.727-5.305,3.14C313.066,45.57,311.807,47.38,310.845,49.586z"/>
		<path stroke="#000000" stroke-width="6" stroke-miterlimit="10" d="M375.427,57.479c0,2.999,0.468,5.602,1.401,7.808
			s2.178,4.03,3.734,5.475c1.555,1.442,3.338,2.503,5.348,3.182c2.007,0.678,4.057,1.018,6.152,1.018c0.961,0,1.781,0.34,2.46,1.02
			c0.68,0.678,1.019,1.5,1.019,2.461c0,0.963-0.339,1.782-1.019,2.461c-0.676,0.68-1.499,1.02-2.46,1.02
			c-2.884,0-5.742-0.496-8.572-1.485s-5.348-2.504-7.553-4.54c-2.206-2.037-4.002-4.583-5.389-7.638
			c-1.388-3.056-2.079-6.648-2.079-10.779V43.646c0-0.849-0.298-1.555-0.892-2.121c-0.593-0.565-1.288-0.85-2.078-0.85h-2.885
			c-0.793,0-1.485-0.297-2.081-0.891c-0.593-0.594-0.89-1.286-0.89-2.079c0-0.849,0.297-1.555,0.89-2.122
			c0.596-0.565,1.288-0.848,2.081-0.848h2.885c0.79,0,1.485-0.297,2.078-0.892c0.594-0.594,0.892-1.286,0.892-2.079V15.131
			c0-0.961,0.34-1.782,1.018-2.461c0.68-0.678,1.499-1.018,2.463-1.018c0.962,0,1.782,0.34,2.46,1.018
			c0.68,0.678,1.019,1.5,1.019,2.461v16.634c0,0.793,0.298,1.485,0.893,2.079c0.594,0.594,1.286,0.892,2.079,0.892h10.437
			c0.792,0,1.485,0.283,2.079,0.848c0.597,0.566,0.891,1.273,0.891,2.122c0,0.793-0.294,1.485-0.891,2.079
			c-0.594,0.594-1.287,0.891-2.079,0.891H378.4c-0.793,0-1.485,0.284-2.079,0.85c-0.595,0.566-0.893,1.273-0.893,2.121v13.834
			H375.427z"/>
	</g>
</g>
<g id="Layer_2">
</g>
</svg>
